# xmcd
#
# Track frame offsets:
#	150
#	14101
#	27640
#	45304
#	57569
#	71784
#	90691
#	101507
#	113872
#	126137
#	139818
#	151999
#	165230
#	179286
#	193031
#	205351
#	218072
#	230341
#	244107
#	256969
#
# Disc length: 3586 seconds
# Revision: 2
# Processed by: cddbd v1.5.2PL0 Copyright (c) Steve Scherf et al.
# Submitted via: dBpowerAMP V12.0
#
DISCID=200e0014
DTITLE=Howlin' Wolf - Howlin' Wolf Sings The Blues
DYEAR=2016
DGENRE=Blues
TTITLE0=Riding In The Moonlight
TTITLE1=Worried About My Baby
TTITLE2=Crying At Daybreak (Smokestack Lightnin')
TTITLE3=Brown Skin Woman (Chocolate Drop)
TTITLE4=Twisting and Turning
TTITLE5=House Rockin' Boogie
TTITLE6=Keep What You Got
TTITLE7=Dog Me Around (How Many More Years)
TTITLE8=Morning At Midnight (Moanin' At Midnight)
TTITLE9=Backslide Boogie
TTITLE10=Riding In The Moonlight
TTITLE11=Driving This Highway
TTITLE12=I'm The Wolf
TTITLE13=My  Friends (Stealing My Clothes)
TTITLE14=The Sun Is Rising
TTITLE15=Chocolate Drop
TTITLE16=Passing By Blues
TTITLE17=My Baby Stole Off
TTITLE18=I Want Your Picture
TTITLE19=Riding In The Moonlight
EXTD=
EXTT0=
EXTT1=
EXTT2=
EXTT3=
EXTT4=
EXTT5=
EXTT6=
EXTT7=
EXTT8=
EXTT9=
EXTT10=
EXTT11=
EXTT12=
EXTT13=
EXTT14=
EXTT15=
EXTT16=
EXTT17=
EXTT18=
EXTT19=
PLAYORDER=
